<svg width="60" height="44" viewBox="0 0 60 44" xmlns="http://www.w3.org/2000/svg" xmlns:xlink="http://www.w3.org/1999/xlink"><title>CRZ Logo Re-size</title><defs><path id="a" d="M6.612 8.496V.193H.143v8.303h6.469z"/></defs><g fill="none" fill-rule="evenodd"><path d="M3.821 43.057h-.447a.06.06 0 0 1-.06-.06v-1.75H1.103v1.75c0 .035-.024.06-.06.06H.594a.057.057 0 0 1-.06-.06v-3.99c0-.036.024-.06.06-.06h.447c.037 0 .06.024.06.06v1.732h2.212v-1.732c0-.036.03-.06.06-.06h.447c.036 0 .061.024.061.06v3.99c0 .035-.025.06-.06.06m4.823-3.627a1.58 1.58 0 0 0-1.571 1.575c0 .857.7 1.569 1.57 1.569.865 0 1.565-.712 1.565-1.569 0-.863-.707-1.575-1.564-1.575m0 3.68c-1.173 0-2.133-.94-2.133-2.105s.96-2.118 2.133-2.118a2.13 2.13 0 0 1 2.126 2.118c0 1.165-.96 2.106-2.126 2.106m7.105-3.657H14.54v3.543a.06.06 0 0 1-.06.06h-.447a.057.057 0 0 1-.06-.06v-3.543h-1.208c-.037 0-.06-.024-.06-.06v-.387c0-.036.023-.06.06-.06h2.984c.03 0 .06.024.06.06v.387a.06.06 0 0 1-.06.06m5.135 3.603H18.02c-.037 0-.06-.025-.06-.06v-3.99c0-.036.023-.06.06-.06h2.863c.036 0 .06.024.06.06v.387c0 .036-.024.06-.06.06h-2.356v1.285h2.036c.036 0 .06.024.06.06v.387c0 .036-.024.06-.06.06h-2.036v1.304h2.356c.036 0 .06.024.06.06v.386c0 .036-.024.06-.06.06m4.907.001h-2.277a.057.057 0 0 1-.06-.06v-3.99c0-.036.024-.06.06-.06h.447c.037 0 .06.024.06.06v3.543h1.77c.037 0 .061.024.061.06v.386c0 .036-.024.06-.06.06m8.907-.271a2.094 2.094 0 0 1-1.135.325 2.116 2.116 0 0 1-2.12-2.112c0-1.152.96-2.106 2.12-2.106.61 0 .966.212 1.292.43.024.017.037.053.013.084l-.236.362a.06.06 0 0 1-.085.017c-.193-.132-.483-.337-.984-.337-.84 0-1.541.712-1.541 1.55 0 .887.7 1.57 1.54 1.57.52 0 .913-.212 1.136-.447v-.61h-1.111c-.037 0-.061-.024-.061-.06v-.416c0-.037.024-.06.06-.06h1.62c.03 0 .06.023.06.06v.9s.032.499-.568.85m6-2.558c0-.471-.434-.773-.827-.773h-1.227v1.539h1.227c.393 0 .827-.302.827-.773v.007zm-.55 1.26l1.033 1.491c.025.036.025.079-.023.079h-.55c-.036 0-.073-.019-.103-.06L39.478 41.5h-.834v1.496c0 .037-.024.06-.06.06h-.447c-.036 0-.06-.023-.06-.06v-3.989c0-.036.024-.06.06-.06h1.855c.706 0 1.287.573 1.287 1.273 0 .652-.496 1.19-1.13 1.268zm5.621-2.057a1.58 1.58 0 0 0-1.57 1.575c0 .857.7 1.569 1.57 1.569.864 0 1.564-.712 1.564-1.569 0-.863-.707-1.575-1.564-1.575m0 3.68c-1.173 0-2.133-.94-2.133-2.105s.96-2.118 2.133-2.118a2.13 2.13 0 0 1 2.126 2.118c0 1.165-.96 2.106-2.126 2.106m6.387-.001c-1.076 0-1.692-.657-1.692-1.683v-2.42c0-.036.024-.06.06-.06h.447c.037 0 .06.024.06.06v2.36c0 .79.424 1.195 1.125 1.195.694 0 1.117-.404 1.117-1.195v-2.36c0-.036.03-.06.06-.06h.447c.037 0 .06.024.06.06v2.42c0 1.026-.61 1.684-1.684 1.684m6.108-3.657H57.22v1.726h1.045c.514 0 .95-.302.95-.863 0-.561-.436-.863-.95-.863m.121 2.233H57.22v1.31c0 .035-.024.06-.06.06h-.447c-.037 0-.06-.025-.06-.06v-3.99c0-.036.023-.06.06-.06h1.673c.773 0 1.408.567 1.408 1.37 0 .803-.635 1.37-1.408 1.37" fill="#000"/><path d="M33.406 2.17s-.191.033-.336.273c-.145.24-.975 1.6-.975 1.6s-.362.594-1.038.594h-.494s-.675 0-.317-.596l.764-1.274s.358-.596 1.035-.596h1.325m.155 5.459s-.197-.037-.347-.295c-.149-.258-1.028-1.757-1.028-1.757s-.352-.6-1.028-.6h-.553s-.676 0-.328.603l.833 1.444s.347.602 1.023.603h1.392m-7.086-5.451s.192.034.336.274l.974 1.6s.362.594 1.038.594h.492s.675 0 .318-.596l-.764-1.273s-.358-.597-1.033-.597h-1.325m-.155 5.458s.197-.036.347-.294c.149-.257 1.027-1.756 1.027-1.756s.352-.6 1.027-.6h.553s.676 0 .328.602l-.833 1.444s-.347.603-1.023.603h-1.39" fill="#EE3124"/><path d="M29.94 2.822c.592 0 1.074-.57 1.074-1.276 0-.704-.482-1.275-1.075-1.275-.594 0-1.075.571-1.075 1.275 0 .705.481 1.276 1.075 1.276m-.002 6.652c.594 0 1.075-.571 1.075-1.276 0-.704-.481-1.275-1.075-1.275s-1.075.57-1.075 1.275.481 1.276 1.075 1.276m2.513-4.728c0 .618.548 1.119 1.225 1.119s1.226-.5 1.226-1.119c0-.617-.549-1.118-1.226-1.118-.677 0-1.226.5-1.226 1.118m-7.499.035c0 .618.55 1.119 1.226 1.119.677 0 1.226-.5 1.226-1.119 0-.617-.549-1.118-1.226-1.118-.677 0-1.225.5-1.225 1.118" fill="#FFC425"/><path d="M16.11 34.412h-5.787c-.073 0-.122-.048-.122-.122v-8.06c0-.073.049-.122.122-.122h5.787c.072 0 .12.049.12.122v.78c0 .074-.048.122-.12.122h-4.761v2.597h4.113c.073 0 .122.05.122.122v.78c0 .074-.049.123-.122.123H11.35v2.634h4.76c.073 0 .122.049.122.122v.78c0 .074-.05.122-.121.122m9.616 0h-6.445c-.085 0-.147-.098-.098-.183l4.59-7.097h-4.357c-.073 0-.123-.048-.123-.122v-.78c0-.073.05-.122.123-.122h6.189c.085 0 .121.11.085.171l-4.627 7.109h4.663c.074 0 .122.049.122.122v.78c0 .074-.048.122-.122.122m4.274 0h-.903c-.074 0-.122-.048-.122-.122v-8.06c0-.073.048-.122.122-.122H30c.074 0 .122.049.122.122v8.06c0 .074-.048.122-.122.122" fill="#000"/><path d="M59.841 23.61c.088 0 .159-.136.159-.305 0-.168-.071-.305-.159-.305H.16c-.09 0-.16.137-.16.305 0 .169.07.305.159.305H59.84z" fill="#DB342C"/><path d="M36.494 27.206h-1.977v6.109h1.977c1.697 0 3.113-1.329 3.113-3.061 0-1.683-1.416-3.048-3.113-3.048m0 7.206h-3.002c-.074 0-.123-.048-.123-.122v-8.06c0-.073.05-.122.123-.122h3.002c2.32 0 4.285 1.83 4.285 4.146 0 2.39-1.966 4.158-4.285 4.158m10.486-7.329c-1.746 0-3.174 1.44-3.174 3.183a3.182 3.182 0 0 0 3.173 3.17c1.746 0 3.162-1.438 3.162-3.17 0-1.743-1.428-3.183-3.162-3.183m0 7.439c-2.367 0-4.309-1.902-4.309-4.256s1.942-4.28 4.31-4.28c2.355 0 4.296 1.926 4.296 4.28s-1.94 4.256-4.297 4.256" fill="#000"/><g transform="translate(53.264 25.916)"><mask id="b" fill="#fff"><use xlink:href="#a"/></mask><path d="M4.329 5.326c1.281-.16 2.283-1.244 2.283-2.56 0-1.416-1.172-2.573-2.6-2.573H.264c-.073 0-.12.048-.12.121v8.06c0 .074.047.122.12.122h.904c.074 0 .121-.048.121-.122V1.216h2.48c.791 0 1.666.607 1.67 1.555-.004.948-.879 1.554-1.67 1.554H2.265l.708 1.026L5.05 8.374c.06.085.133.122.207.122h1.11c.099 0 .099-.086.05-.158L4.329 5.326z" fill="#000" mask="url(#b)"/></g><path d="M4.68 31.242c1.282-.16 2.284-1.244 2.284-2.56 0-1.416-1.173-2.574-2.6-2.574H.616c-.073 0-.122.049-.122.122v8.06c0 .074.049.122.122.122h.904c.073 0 .121-.048.121-.122v-7.158h2.478c.793 0 1.668.607 1.672 1.555-.004.948-.88 1.554-1.672 1.554H2.618l.708 1.026 2.076 3.023c.06.085.133.122.207.122h1.11c.098 0 .098-.086.05-.159L4.68 31.242zm17.367-14.196c1.281-.16 2.283-1.244 2.283-2.56 0-1.416-1.173-2.573-2.6-2.573h-3.748c-.073 0-.122.048-.122.122v8.059c0 .074.049.122.122.122h.904c.073 0 .121-.048.121-.122v-7.157h2.478c.793 0 1.668.607 1.672 1.555-.004.947-.879 1.554-1.672 1.554h-1.5l.707 1.025 2.076 3.023c.06.085.133.122.207.122h1.11c.098 0 .098-.085.05-.158l-2.088-3.012zM4.289 20.338C1.967 20.338 0 18.458 0 16.054c0-2.32 1.967-4.26 4.289-4.26 1.234 0 1.955.427 2.615.867.048.036.073.11.024.17l-.476.733a.122.122 0 0 1-.172.037c-.39-.269-.977-.684-1.991-.684-1.686 0-3.116 1.452-3.116 3.137 0 1.77 1.417 3.161 3.116 3.161 1.087 0 1.65-.464 1.991-.671.061-.037.135-.025.172.036l.488.708a.132.132 0 0 1-.036.171c-.38.305-1.296.88-2.615.88zm7.747-6.664l-1.344 3.625h2.7l-1.356-3.625zm3.445 6.542h-.867c-.11 0-.16-.073-.196-.171l-.684-1.843H10.35l-.685 1.843c-.036.098-.085.17-.195.17h-.807a.161.161 0 0 1-.158-.219l3.091-7.97c.024-.085.073-.171.183-.171h.574c.11 0 .16.086.196.171l3.079 7.97c.037.086 0 .22-.147.22zm16.203 0h-4.606c-.074 0-.123-.049-.123-.122v-8.068c0-.073.05-.122.123-.122h.904c.073 0 .122.049.122.122v7.165h3.58c.073 0 .122.049.122.122v.781c0 .073-.049.122-.122.122m4.741.11c-1.356 0-2.126-.44-2.737-.904-.049-.036-.06-.122-.024-.17l.574-.72c.037-.061.11-.061.171-.025.403.317.929.732 2.016.732 1.332 0 1.772-.659 1.772-1.354 0-1.001-1.173-1.111-2.26-1.502-1.1-.39-2.359-.866-2.359-2.367 0-1.343 1.051-2.21 2.982-2.21 1.087 0 1.87.379 2.358.696.06.037.073.11.036.171l-.5.757a.122.122 0 0 1-.171.036c-.282-.195-.88-.573-1.723-.573-1.577 0-1.809.659-1.809 1.123 0 .903 1.076 1.086 2.078 1.427.781.27 2.54.72 2.54 2.442 0 1.501-1.16 2.44-2.944 2.44m9.335-7.445c-1.747 0-3.176 1.44-3.176 3.186a3.185 3.185 0 0 0 3.177 3.173c1.747 0 3.165-1.44 3.165-3.173 0-1.745-1.43-3.186-3.165-3.186m0 7.446c-2.37 0-4.313-1.904-4.313-4.26s1.942-4.284 4.313-4.284c2.358 0 4.3 1.928 4.3 4.284s-1.942 4.26-4.3 4.26m13.744-.11h-.83c-.037 0-.074-.024-.099-.049l-5.034-6.347v6.274c0 .073-.048.122-.122.122h-.83c-.074 0-.123-.049-.123-.122v-8.068c0-.073.05-.122.123-.122h.83c.037 0 .086.036.11.061l5.022 6.323v-6.262c0-.073.061-.122.123-.122h.83c.074 0 .122.049.122.122v8.068c0 .073-.048.122-.122.122" fill="#000"/></g></svg>