<svg xmlns="http://www.w3.org/2000/svg" width="89.01" height="26.64" viewBox="0 0 98.9 29.6"><path fill="#E52729" d="M11.2 25.5c.1-.2.3-.4.9-.6 0 0 22.6-7.7 52.6-6.1 0 0 1.7-.1 1.2.7-.3.5-.8.5-1.8.5 0 0-.3.1-1.6 0 0 0 3.1 1.2-9 .9 0 0 1.1 1.1-3.4.8 0 0-12.4-.6-37.5 4 0 .1-2 .5-1.4-.2"/><path fill="#010101" d="M36.6.8s-1.5-1.9-1.2.3c0 0 .2 4.5-.5 10.2-.1-.2-.2-.4-.4-.7 0 0-1.3-1.7-2.8-1.3 0 0-1.9.6-2.9 3.4 0 0-.8 1.9-.5 3.4 0 0-.1 3.8 4.6 1.1 0 0 .5-.3 1.1-.9-.1.5-.3.8-.3 1.3 0 0-.2 1 .3 1.3.2.1.4 0 .8-1 0 0 3.3-8.5 3.5-12.1-.1 0 1.1-1.7-1.7-5m-5.8 15.3s-.3-.2-.3-1.3c0 0 .1-1.8 1.3-3.2 0 0 .3-.4.6-.5.1 0 .2.1.3.7 0 .1-.4.2-.2.6 0 0 .6 1.6 2 .9-.1.3-.1.7-.2 1-.7 1-2.2 2.7-3.5 1.8m17.3-6.9s2.7 2.9 2.6 4.9c0 0-.4 2.8-5 2.7 0 0-1.1-.2 0-.9 0 0 3-1 1-4.6 0 0-1.9 2.2-3.1 3.4-3.5 3.4-4.2 2.2-4.2 2.2-1.3-1.9-.4-6.1-.4-6.1.5-2.2 1.7-1.4 1.7-1.4 1.7.3 1 1.7 1 1.7-.2 1.1-.5 1-.5 1-.5.4-.6 2.2-.6 2.2.2 1-.7 2.4 1.9.2.6-.6 3.7-4.1 4.2-5.5.2-.1.7-1.4 1.4.2m-4-4.3c0 .4-.3.8-.6 1-.4.3-1.4.9-1.7.8-.3-.1 0-1 .1-1.3 0-.3 0-.5.1-.8.1-.7.6-1.1 1.2-1.1.6.1 1 .7.9 1.4m19.1 3.8c.8-1.1 1.4-.6 1.4-.6h.3c1.1-.1.2 1 .2 1-.9 1.2-1.7 3.5-1.7 3.5-.2.5-.4 1.3-.4 1.3-.3 1.4 1.1.4 1.1.4.2-.1.4-.4.5-.4.2-.2.3-.2.3-.2.3 0-.2-1.6-.2-1.6-.2-.6-.2-.7-.2-.7-.1-.8.3-1 .3-1 .5-.3.8.5.8.5.4.6.8 2.3.8 2.3.3 1.4-.7 1.3-.7 1.3-.5.1-1.2.9-1.2.9-1.2 1-2.9 1.1-2.9 1.1C59.9 16.4 60 15 60 15c0-1.6 3.2-6.3 3.2-6.3m-6.7 2c.8.5 2 1.7 1.8 2.9 0 0-.4 2.8-5 2.7 0 0-.5 0-.5-.3 0-.2.1-.4.5-.6 0 0 3-1 1-4.6 0 0-.7.6-1.8 1.4 0 0-.7.8-.7-.3 0 0 .1-.6.3-.9 0 0 1.7-1 2.2-2.5.3-1 1.8-1.9 1.9-1 .1.4-.4.6-.6.9-.3.7.4 2 .9 2.3m-29.6 5.6s0-.1 0 0c-.2-.2-.8.1-1.4.5-.1.1-.2.1-.3.2-.2.1-.4.3-.5.3 0 0-.4.3-.3-.4v-.6s.5-2.1.8-2.7c0 0 .1-.6.3-1.2 0 0 .9-.9-.8-1.2 0 0-.8-2-1.7 1.1-.1-.3-.4-.8-.8-1-.1-.1-.2-.1-.4-.1h-.3s-.8-.3-1.7.8c-.9 1-3.6 4.2-3 6.8 0 0 .3 1.4 1.6 1.4 0 0 1.6 0 2.8-1.1 0 0 .4-.3.8-.8 0 .2 0 .3.1.5v.1s0 .3.3.5c.2.2.5.3 1 .2h.1s1.7-.4 1.7-1.1c0-.4.1-.4.1-.4s.1-.1.1-.2c.2-.1 1.6-1 1.5-1.6m-4.9 1c-.1.2-.3.5-.6.7 0 0-1.9 1.1-1.8-.5 0 0 .1-.9.4-1.7 0 0 .9-2.2 2.2-3.5.1-.1.2-.1.3 0 .2.3.2.5.4.8 0 .1.1.1.1.2-.2.8-.6 2.4-.6 3.6-.2.1-.3.2-.4.4M8.9 8.4c.4.7-.1 1.7-.1 1.7-2.1 4.3-4.7 14.3-5.2 16.3v.1c0 .2-.1.3-.1.3 0 .1-.1.3-.1.4-.1.3-.1.7-.1 1.2s0 1.1-.2 1.2c-.5.2-.7-.4-.8-1.1-.5-.1-.8-.7-.8-.7-1.7-1.2-.5-4.3-.5-4.3C2.2 18.9 7.8 9.4 7.8 9.4c.7-1.1 1-1.2 1.1-1m8.6 16.1c.9 1.3 1.6 2.1 1.4 2.3-.6.5-3.4-1.6-3.4-1.6-4.8-4-6.9-9-7.4-10.3-.1-.2.1-.3.1-.3.2-.2.4-.3 1.1-.4-.3-.2-.4-.2-.4-.4.1-.2.7-.2.7-.2.5 0 .9-.1.9-.1.8-.1 1.2-.2 1.2-.2 1.7-.3 2.3-1 2.3-1 1.6-1.7-1-3.3-1-3.3C6.3 5.2 1 7 1 7c-.3.1-.5.1-.8 0-.7-.2.5-1.2.5-1.2 3.3-2.7 5-1.9 5-1.9 6.5.5 9.3 3.8 9.3 3.8 2.2 2.4 1.7 4.2 1.4 4.8-1.1 2-3.7 2-3.7 2h-1.1c.3.3.5.9.5.9.5 1.7 5.4 9.1 5.4 9.1m60.1-9.2s3.5 2.9-.8 2.7c0 0-.8.1-1.4-1.7 0 0-1.5-3.4-1.4-4.7-.1.2-1 1.2-1.5 2.3-.3.6-.4.9-.8 1.5-.2.3-.4.6-.6.8-1.9 1.8-2.1-.5-2.1-.5-.4-1.9.6-5.1.6-5.1.7-2.2 1.8-1.3 1.8-1.3 1.5.4.9 1.8.9 1.8-.3 1.1-.6.9-.6.9-.4.2-.5.8-.5 1.1 0 0-.1 1.2.4.3.4-.8 1.2-2.2 1.8-2.6 0 0 .8-.9 1.3-.2 0 0 2.1 4.2 2.9 4.7"/><path fill="#E52729" d="M67.9 19c.9.1 1.9.1 3.4.2.7.1 1.9.1 2 .6.1.4-.4.9-1.4 1.1-.5.1-.8.2-1.3.2s-1.7 0-1.7-.6c0-.4-.8-.4-1.3-.4-1 0-.9-.3-.7-.7.2-.2.5-.4 1-.4m31-15.2c0-.3-.2-.5-.5-.5H81.8c-.3 0-.5.2-.5.5v16.6c0 .3.2.5.5.5h16.6c.3 0 .5-.2.5-.5V3.8z"/><path fill="#FFF" d="M87.8 15.4V15c-.2-.2-.3-.4-.3-.7V13c0-.5-.3-.9-.8-1.1.6-.2.8-.6.8-1.1v-1c0-1-.7-1.5-1.6-1.5h-2.2v7.1H85v-2.9h.7c.4 0 .5.3.5.6v1.3c0 .6.2 1 .7 1h.9zm-1.6-4.5c0 .4-.2.6-.5.6H85V9.4h.7c.3 0 .5.2.5.5v1zm5.6 4.5v-1.2h-2.1v-2h1.4v-1h-1.4V9.4h2.1V8.3h-3.4v7.1h3.4zm4.7-1.9v-3.3c0-1.1-.7-1.9-1.9-1.9h-2.1v7.1h2.1c1.2 0 1.9-.8 1.9-1.9zm-1.4-.1c0 .5-.2.8-.7.8h-.6V9.4h.6c.5 0 .7.3.7.8v3.2z"/></svg>